<?xml version="1.0" standalone="no"?>
<!DOCTYPE svg PUBLIC "-//W3C//DTD SVG 20010904//EN"
 "http://www.w3.org/TR/2001/REC-SVG-20010904/DTD/svg10.dtd">
<svg version="1.0" xmlns="http://www.w3.org/2000/svg"
 width="512.000000pt" height="512.000000pt" viewBox="0 0 512.000000 512.000000"
 preserveAspectRatio="xMidYMid meet">

<g transform="translate(0.000000,512.000000) scale(0.100000,-0.100000)"
fill="#000000" stroke="none">
<path d="M1655 5109 c-177 -26 -377 -109 -520 -216 -304 -228 -499 -603 -531
-1020 l-6 -91 -41 -19 c-114 -51 -288 -200 -372 -318 -257 -362 -243 -857 35
-1274 66 -99 233 -279 325 -351 31 -25 66 -52 76 -60 18 -15 18 -18 2 -110
-24 -135 -24 -452 0 -575 41 -208 110 -372 218 -514 177 -235 467 -399 859
-485 128 -28 329 -56 402 -56 62 0 97 29 105 86 4 35 1 46 -23 73 -28 31 -33
33 -159 47 -687 79 -1067 332 -1184 790 -45 178 -52 438 -15 629 8 44 17 106
21 137 5 54 4 58 -24 85 -17 15 -57 44 -89 63 -32 19 -110 87 -174 150 -175
173 -272 334 -328 540 -21 80 -25 117 -26 235 0 167 19 247 92 389 38 74 64
109 142 186 97 97 158 137 272 180 75 28 88 49 88 147 0 583 358 1061 859
1148 284 50 562 -37 799 -249 54 -48 68 -56 102 -56 34 0 48 8 102 56 155 138
311 217 497 249 616 108 1161 -432 1161 -1151 0 -101 14 -122 101 -153 101
-37 179 -90 269 -180 67 -68 96 -106 133 -178 70 -136 90 -219 91 -383 0 -150
-18 -245 -73 -378 -91 -220 -292 -453 -490 -569 -89 -52 -96 -72 -71 -194 84
-413 29 -786 -153 -1029 -192 -256 -525 -406 -1032 -464 -126 -14 -131 -16
-159 -47 -24 -27 -27 -38 -23 -73 8 -57 43 -86 105 -86 66 0 268 27 382 51
642 136 989 454 1097 1004 24 124 24 439 0 579 -10 55 -14 102 -10 106 4 3 43
32 85 64 103 77 254 237 328 347 278 416 292 912 35 1274 -48 67 -177 195
-245 242 -25 17 -73 44 -106 61 l-61 31 -7 93 c-47 626 -449 1119 -1001 1229
-87 17 -329 18 -410 1 -167 -36 -343 -114 -470 -209 -38 -29 -72 -53 -75 -53
-3 0 -38 25 -79 56 -93 70 -272 157 -376 183 -156 40 -311 50 -450 30z"/>
<path d="M1690 4445 c-149 -42 -273 -160 -354 -337 -55 -120 -70 -195 -70
-348 0 -153 15 -228 70 -348 109 -238 291 -364 504 -349 191 13 341 130 440
342 59 125 74 199 74 355 0 156 -15 230 -74 355 -73 158 -180 267 -308 315
-75 29 -207 36 -282 15z m241 -221 c137 -75 223 -253 223 -464 0 -120 -19
-204 -66 -293 -120 -225 -338 -270 -487 -100 -90 102 -135 231 -135 393 0 120
19 204 66 292 98 185 253 251 399 172z"/>
<path d="M3190 4445 c-187 -53 -342 -236 -406 -480 -25 -97 -25 -313 0 -410
82 -315 302 -510 556 -492 191 13 341 130 440 342 59 125 74 199 74 355 0 156
-15 230 -74 355 -73 158 -180 267 -308 315 -75 29 -207 36 -282 15z m241 -221
c137 -75 223 -253 223 -464 0 -212 -85 -388 -225 -465 -109 -60 -238 -31 -331
75 -88 99 -132 229 -132 390 0 120 19 204 66 292 98 185 253 251 399 172z"/>
<path d="M810 3181 c-83 -26 -159 -90 -201 -171 -21 -39 -24 -59 -24 -155 1
-96 4 -118 27 -173 43 -104 89 -173 168 -252 127 -126 257 -190 405 -197 76
-4 99 -2 149 17 72 27 138 86 174 155 25 45 27 60 27 160 0 96 -3 118 -26 173
-45 107 -91 174 -174 257 -89 88 -196 153 -300 180 -62 16 -182 19 -225 6z
m257 -237 c98 -49 182 -134 229 -229 44 -88 55 -174 30 -223 -58 -112 -267
-65 -421 96 -91 95 -147 256 -115 333 34 81 145 91 277 23z"/>
<path d="M4081 3175 c-219 -61 -421 -265 -486 -490 -24 -81 -17 -213 14 -275
31 -61 86 -116 146 -148 46 -25 60 -27 160 -27 121 1 173 16 293 86 73 44 197
168 241 241 70 120 85 172 86 293 0 96 -3 116 -24 155 -32 62 -86 117 -146
148 -63 32 -199 41 -284 17z m194 -199 c97 -41 82 -203 -33 -354 -104 -138
-305 -227 -400 -178 -74 38 -82 142 -20 268 93 188 319 320 453 264z"/>
<path d="M2415 2946 c-139 -33 -254 -95 -344 -185 -138 -138 -210 -312 -211
-506 0 -136 -41 -198 -160 -245 -119 -47 -252 -156 -326 -267 -111 -167 -143
-402 -81 -596 123 -383 548 -585 922 -438 113 44 185 97 288 210 21 22 46 41
57 41 11 0 36 -19 57 -41 103 -113 175 -166 288 -210 262 -102 558 -38 758
165 265 269 259 718 -15 984 -68 66 -108 93 -218 147 -133 66 -170 124 -170
267 0 90 -34 218 -82 312 -31 61 -63 103 -127 167 -141 141 -270 198 -466 205
-72 2 -130 -1 -170 -10z m310 -217 c207 -76 334 -265 335 -496 0 -129 58 -258
149 -331 22 -17 86 -55 143 -84 166 -84 260 -198 294 -360 73 -345 -238 -657
-582 -585 -114 24 -187 67 -285 168 -48 49 -102 96 -122 104 -47 19 -147 19
-194 0 -20 -8 -75 -55 -123 -105 -68 -70 -102 -96 -159 -124 -145 -69 -294
-70 -434 -3 -256 122 -356 415 -229 670 55 111 126 175 265 242 96 45 123 64
170 114 76 83 97 142 108 301 4 69 14 143 22 166 68 189 207 311 397 348 54
10 187 -3 245 -25z"/>
<path d="M2511 186 c-87 -48 -50 -186 49 -186 51 0 100 49 100 99 0 75 -83
124 -149 87z"/>
</g>
</svg>
